<?xml version="1.0" encoding="utf-8"?>
<!-- Generator: Adobe Illustrator 22.1.0, SVG Export Plug-In . SVG Version: 6.00 Build 0)  -->
<svg version="1.1" id="Layer_1" xmlns="http://www.w3.org/2000/svg" xmlns:xlink="http://www.w3.org/1999/xlink" x="0px" y="0px"
	 viewBox="0 0 720 77.1" style="enable-background:new 0 0 720 77.1;" xml:space="preserve">
<style type="text/css">
	.st0{fill:#231F20;}
</style>
<title>Guggenheim</title>
<path class="st0" d="M74,41.1c0,19.6-13.7,35.8-35.1,35.8c-20.6,0-38.8-15.1-38.8-38.3S19.6,0.2,38.8,0.2c12.4,0,20.1,3.5,27.9,9
	l-4.3,6.4c-6.9-5-15.4-8.1-23.5-8.1c-18.9,0-30,14.7-30,31.1c0,17.5,12.9,31.1,30.2,31.1c14.6,0,24.9-9.7,26.3-21.3H37.6v-7.3
	L74,41.1z M115.7,76.9c16.6,0,28.1-10.6,28.1-27.9V1.4h-8.1v47c0,14.8-8.4,21.2-20,21.2s-19.8-6.3-19.8-21.2v-47h-8.1V49
	C87.8,66.9,98.7,76.9,115.7,76.9 M197.5,41.1v7.3h27.8c-1.4,11.6-11.8,21.3-26.3,21.3c-17.3,0-30.2-13.6-30.2-31.1
	c0-16.4,11-31.1,30-31.1c8.1,0,16.6,3.1,23.5,8.1l4.2-6.4c-7.8-5.5-15.5-9-27.9-9c-19.1,0-38.7,15.1-38.7,38.4
	c0,23.3,18.2,38.3,38.8,38.3c21.5,0,35.2-16.2,35.2-35.8L197.5,41.1z M284.2,41.1v7.3H312c-1.4,11.6-11.8,21.3-26.3,21.3
	c-17.3,0-30.2-13.6-30.2-31.1c0-16.4,11-31.1,30-31.1c8.1,0,16.6,3.1,23.5,8.1l4.3-6.4c-7.8-5.5-15.5-9-27.9-9
	c-19.1,0-38.7,15.1-38.7,38.4c0,23.3,18.2,38.3,38.8,38.3c21.5,0,35.2-16.2,35.2-35.8L284.2,41.1z M378.9,75.7v-7.3h-35.4V41.6h31.8
	v-7.3h-31.8V8.7h35.4V1.4h-43.5v74.3L378.9,75.7z M400.3,0l-1.6,0.4v75.3h8.1V19.4L455,77.1l1-0.3V1.4h-8.1v55.4L400.3,0L400.3,0z
	 M534.1,75.7V1.4H526v32.9h-39.7V1.4h-8.1v74.3h8.1v-34H526v34H534.1z M599.5,75.7v-7.3h-35.3V41.6H596v-7.3h-31.8V8.7h35.3V1.4
	h-43.4v74.3H599.5z M626.1,75.7V1.4H618v74.3H626.1z M720,75.7l-2.8-75.5L715.5,0l-31.4,55.9L651.9,0l-1.5,0.2l-2.8,75.5h8.2
	l0.9-52.6l26.5,45h1.1l26.3-44.9l1.1,52.5L720,75.7z"/>
</svg>
